<svg width="26" height="17" viewBox="0 0 26 17" fill="none" xmlns="http://www.w3.org/2000/svg">
<path d="M2.33984 11.2275C2.48384 12.3313 2.84409 13.159 3.41992 13.7109C4.0199 14.2629 4.89592 14.539 6.04785 14.5391C7.03185 14.5391 7.86023 14.2275 8.53223 13.6035C9.22815 12.9796 9.63582 12.1874 9.75586 11.2275H12.0957C11.9997 12.3074 11.676 13.2918 11.124 14.1797C10.572 15.0436 9.85178 15.7275 8.96387 16.2314C8.09991 16.7354 7.12778 16.9873 6.04785 16.9873C4.99191 16.9873 4.01979 16.7354 3.13184 16.2314C2.2679 15.7275 1.54765 15.0436 0.97168 14.1797C0.419721 13.2918 0.0960269 12.3074 0 11.2275H2.33984Z" fill="black"/>
<path d="M15.6602 11.2275C15.8282 12.4034 16.2004 13.2552 16.7764 13.7832C17.3764 14.2871 18.2403 14.5391 19.3682 14.5391C20.352 14.539 21.1918 14.2273 21.8877 13.6035C22.5836 12.9796 22.9801 12.1874 23.0762 11.2275H25.416C25.32 12.3314 24.9842 13.3158 24.4082 14.1797C23.8562 15.0436 23.136 15.7275 22.248 16.2314C21.3601 16.7354 20.4001 16.9873 19.3682 16.9873C18.3122 16.9873 17.3401 16.7354 16.4521 16.2314C15.5882 15.7275 14.868 15.0436 14.292 14.1797C13.74 13.2918 13.4163 12.3074 13.3203 11.2275H15.6602Z" fill="black"/>
<path d="M25.416 9.64844H0V7.33887H25.416V9.64844Z" fill="black"/>
<path d="M6.04785 0C7.10379 -9.2313e-08 8.07591 0.25192 8.96387 0.755859C9.82778 1.25981 10.5481 1.94374 11.124 2.80762C11.676 3.69555 11.9997 4.67987 12.0957 5.75977H9.75586C9.58784 4.58389 9.21561 3.73207 8.63965 3.2041C8.03965 2.70019 7.17576 2.44824 6.04785 2.44824C5.06405 2.44827 4.22423 2.75999 3.52832 3.38379C2.83237 4.00774 2.43588 4.79986 2.33984 5.75977H0C0.0960267 4.65586 0.431853 3.67156 1.00781 2.80762C1.5598 1.9437 2.28003 1.25982 3.16797 0.755859C4.05592 0.251897 5.01592 2.38601e-05 6.04785 0Z" fill="black"/>
<path d="M19.3682 0C20.4241 2.61367e-05 21.3962 0.251886 22.2842 0.755859C23.1481 1.25983 23.8684 1.94369 24.4443 2.80762C24.9963 3.69556 25.32 4.67985 25.416 5.75977H23.0762C22.9322 4.65602 22.5719 3.82833 21.9961 3.27637C21.3961 2.72439 20.5201 2.44827 19.3682 2.44824C18.3842 2.44824 17.5558 2.75979 16.8838 3.38379C16.1879 4.00773 15.7802 4.79988 15.6602 5.75977H13.3203C13.4163 4.67987 13.74 3.69555 14.292 2.80762C14.844 1.94374 15.5642 1.25981 16.4521 0.755859C17.3161 0.251926 18.2882 9.44104e-08 19.3682 0Z" fill="black"/>
</svg>
